# xmcd
#
# Track frame offsets:
#	150
#	53163
#	89537
#	131730
#	173847
#
# Disc length: 2577 seconds
#
# Revision: 1
# Processed by: cddbd v1.5.2PL0 Copyright (c) Steve Scherf et al.
# Submitted via: audiograbber 1.83.01
#
DISCID=3f0a0f05
DTITLE=Grateful Dead - 89-10-16 Meadowlands Arena, East Rutherford NJ
DYEAR=1900
DGENRE=
TTITLE0=Dark Star
TTITLE1=Playing In The Band
TTITLE2=Uncle John's Band
TTITLE3=Playing In The Band
TTITLE4=Drums
EXTD=
EXTT0=
EXTT1=
EXTT2=
EXTT3=
EXTT4=
PLAYORDER=
